<?xml version="1.0" standalone="no"?>
<!DOCTYPE svg PUBLIC "-//W3C//DTD SVG 20010904//EN"
 "http://www.w3.org/TR/2001/REC-SVG-20010904/DTD/svg10.dtd">
<svg version="1.0" xmlns="http://www.w3.org/2000/svg"
 width="512.000000pt" height="512.000000pt" viewBox="0 0 512.000000 512.000000"
 preserveAspectRatio="xMidYMid meet">

<g transform="translate(0.000000,512.000000) scale(0.100000,-0.100000)"
fill="#000000" stroke="none">
<path d="M2360 4334 c-249 -29 -452 -74 -626 -140 -332 -124 -622 -310 -869
-558 -425 -426 -669 -974 -702 -1575 l-6 -121 161 0 162 0 0 49 c0 27 5 95 11
152 64 626 397 1182 914 1528 1053 704 2487 308 3032 -836 62 -129 123 -306
153 -441 23 -105 50 -320 50 -399 l0 -53 160 0 160 0 0 53 c0 87 -19 265 -40
382 -58 309 -179 613 -348 870 -108 165 -186 260 -321 395 -357 356 -789 579
-1291 667 -117 20 -186 25 -355 28 -115 2 -226 1 -245 -1z"/>
<path d="M2994 2377 l-352 -632 -93 -6 c-103 -7 -169 -28 -249 -79 -211 -135
-275 -438 -139 -651 37 -58 123 -141 175 -167 109 -55 251 -68 367 -32 304 94
432 464 252 726 l-35 51 354 638 355 639 -132 73 c-73 40 -136 73 -142 73 -5
0 -168 -285 -361 -633z"/>
</g>
</svg>
