<?xml version="1.0" standalone="no"?>
<!DOCTYPE svg PUBLIC "-//W3C//DTD SVG 20010904//EN"
 "http://www.w3.org/TR/2001/REC-SVG-20010904/DTD/svg10.dtd">
<svg version="1.0" xmlns="http://www.w3.org/2000/svg"
 width="500.000000pt" height="500.000000pt" viewBox="0 0 500.000000 500.000000"
 preserveAspectRatio="xMidYMid meet">

<g transform="translate(0.000000,500.000000) scale(0.100000,-0.100000)"
fill="#000000" stroke="none">
<path d="M2395 4004 c-358 -53 -649 -197 -901 -449 -228 -227 -365 -481 -436
-808 -18 -85 -22 -134 -22 -297 -1 -214 11 -297 65 -467 31 -97 50 -126 74
-117 21 8 19 29 -10 115 -64 186 -89 440 -65 639 16 125 25 120 12 -6 -17
-168 7 -371 65 -549 153 -474 566 -840 1050 -931 453 -85 864 30 1218 338 l80
70 -70 -67 c-284 -270 -631 -415 -998 -415 -374 0 -686 126 -954 383 -103 99
-133 114 -133 66 0 -28 151 -176 255 -251 219 -155 467 -242 735 -256 211 -12
361 8 557 73 566 188 990 724 1052 1330 14 127 1 370 -24 475 -115 483 -427
856 -862 1030 -169 67 -290 91 -488 95 -93 2 -183 1 -200 -1z m438 -84 c533
-113 927 -508 1053 -1055 24 -104 28 -142 28 -280 0 -156 -8 -237 -40 -378
-21 -89 -28 -82 -9 9 33 165 35 401 4 553 -87 430 -382 808 -774 992 -203 96
-397 133 -645 127 -228 -7 -383 -44 -572 -139 -79 -40 -220 -131 -274 -178
-16 -14 -9 -6 16 19 25 25 86 73 136 106 197 135 386 206 659 248 71 11 323
-4 418 -24z m-1283 -393 c0 -2 -12 -14 -27 -28 l-28 -24 24 28 c23 25 31 32
31 24z m460 -523 c79 -32 81 -111 5 -130 -19 -5 -32 2 -58 30 -22 23 -44 36
-60 36 -70 0 -104 -44 -72 -94 10 -15 49 -41 91 -61 41 -20 92 -51 113 -70
l38 -35 7 62 c3 33 6 78 6 99 0 39 0 39 40 39 50 0 80 -27 80 -72 l1 -33 37
41 c56 62 120 104 157 104 53 0 59 -17 50 -133 -10 -119 -12 -192 -5 -226 4
-20 0 -26 -25 -33 -16 -4 -42 -6 -57 -2 -42 9 -52 47 -44 179 8 120 6 126 -33
105 -31 -16 -80 -104 -92 -161 -8 -40 -8 -66 0 -94 12 -46 7 -54 -42 -62 -29
-4 -40 -1 -60 19 l-24 24 -28 -22 c-39 -31 -118 -54 -186 -54 -102 0 -169 42
-169 105 0 37 21 58 72 70 24 6 29 3 42 -28 23 -56 78 -74 124 -41 53 37 13
99 -93 143 -122 51 -170 110 -151 185 23 90 222 156 336 110z m1220 -13 c45
-32 65 -79 65 -151 -1 -123 -65 -208 -165 -218 -46 -4 -52 -2 -79 27 -16 17
-32 31 -36 31 -4 0 -6 -52 -3 -115 3 -91 1 -115 -10 -120 -20 -7 -75 -6 -89 3
-18 11 -33 58 -33 101 0 36 -1 37 -30 33 -67 -10 -100 22 -100 97 0 21 -6 15
-33 -34 -39 -70 -82 -99 -136 -91 -132 20 -154 256 -34 355 40 33 106 53 143
44 14 -3 37 -17 53 -31 l27 -26 0 38 0 39 47 -6 c71 -8 75 -17 69 -192 -4
-102 -2 -136 4 -105 8 44 15 290 8 320 -2 11 5 14 32 12 67 -5 78 -11 85 -42
l7 -31 38 40 c53 54 113 62 170 22z m-2093 -193 c-3 -8 -6 -5 -6 6 -1 11 2 17
5 13 3 -3 4 -12 1 -19z m-10 -60 c-3 -7 -5 -2 -5 12 0 14 2 19 5 13 2 -7 2
-19 0 -25z m1666 -319 c43 -23 50 -66 17 -99 -39 -39 -120 -12 -120 40 0 25
42 70 65 70 9 0 26 -5 38 -11z m177 -62 c19 -9 27 -24 34 -60 8 -47 8 -47 42
-41 26 5 35 2 40 -10 9 -23 -11 -43 -50 -50 -32 -6 -34 -9 -40 -59 -12 -107
-8 -175 15 -198 15 -15 28 -19 50 -14 37 8 37 -6 0 -38 -64 -54 -153 -39 -187
30 -17 37 -17 62 2 211 7 51 6 52 -19 52 -14 0 -29 -5 -33 -11 -4 -6 -8 -80
-10 -163 l-3 -151 -50 -3 c-47 -3 -51 -1 -67 29 -13 27 -15 48 -10 111 4 43 9
92 13 110 l6 33 -32 -37 -32 -37 -28 31 c-30 34 -62 33 -82 -3 -20 -39 -30
-137 -19 -201 11 -72 7 -78 -57 -78 -64 0 -78 27 -70 133 4 45 9 118 12 162
l5 80 -19 -87 c-38 -174 -83 -278 -131 -303 -16 -8 -52 -15 -80 -15 -81 0 -97
25 -128 200 l-8 45 -8 -35 c-22 -97 -59 -191 -85 -219 -51 -55 -137 -37 -167
34 -7 18 -25 97 -39 176 -24 134 -47 237 -61 274 -5 12 2 15 34 15 95 0 105
-18 127 -215 16 -146 33 -235 44 -235 11 0 59 126 71 185 5 28 13 107 16 178
l7 127 33 0 c52 0 84 -17 99 -53 7 -18 21 -97 29 -176 17 -157 33 -228 46
-215 20 21 62 145 75 223 8 46 15 124 15 172 0 55 4 89 10 89 18 0 84 -30 102
-47 12 -11 18 -31 18 -60 0 -38 3 -43 23 -43 12 0 40 -9 60 -19 l37 -19 29 29
c40 40 100 41 130 3 l21 -27 0 38 0 38 43 -8 c48 -9 68 -9 116 1 l33 7 -7 63
-7 64 34 0 c18 0 44 -6 58 -13z m470 -52 c37 -19 60 -52 60 -86 0 -63 -94
-140 -187 -155 -49 -7 -52 -13 -22 -40 34 -30 115 -26 168 9 42 28 43 28 36 5
-23 -72 -93 -117 -183 -118 -105 0 -163 51 -170 151 -5 69 10 119 51 165 63
73 178 105 247 69z m404 -209 c-3 -15 -8 -25 -11 -23 -2 3 -1 17 3 31 3 15 8
25 11 23 2 -3 1 -17 -3 -31z m-264 -489 c0 -2 -12 -14 -27 -28 l-28 -24 24 28
c23 25 31 32 31 24z"/>
<path d="M3073 2928 c-36 -39 -46 -70 -46 -138 -1 -98 34 -141 87 -107 54 36
84 173 52 235 -20 39 -62 44 -93 10z"/>
<path d="M2648 2884 c-81 -43 -84 -234 -3 -234 41 0 71 42 100 143 15 53 15
60 1 82 -19 29 -56 32 -98 9z"/>
<path d="M3311 2244 c-26 -19 -51 -71 -51 -109 0 -29 8 -30 58 -10 75 32 103
83 64 118 -23 21 -41 21 -71 1z"/>
</g>
</svg>
