<?xml version="1.0" standalone="no"?>
<!DOCTYPE svg PUBLIC "-//W3C//DTD SVG 20010904//EN"
 "http://www.w3.org/TR/2001/REC-SVG-20010904/DTD/svg10.dtd">
<svg version="1.0" xmlns="http://www.w3.org/2000/svg"
 width="500.000000pt" height="500.000000pt" viewBox="0 0 500.000000 500.000000"
 preserveAspectRatio="xMidYMid meet">

<g transform="translate(0.000000,500.000000) scale(0.100000,-0.100000)"
fill="#000000" stroke="none">
<path d="M0 2500 l0 -2500 2500 0 2500 0 0 2500 0 2500 -2500 0 -2500 0 0
-2500z m2665 1570 c273 -29 558 -142 786 -311 402 -298 651 -824 625 -1321
-20 -377 -151 -704 -394 -982 -216 -247 -516 -425 -837 -495 -292 -64 -568
-48 -860 50 -246 84 -426 198 -624 399 -289 292 -458 740 -437 1152 22 428
184 784 490 1081 211 205 484 345 791 406 55 11 114 22 130 24 59 8 242 6 330
-3z"/>
<path d="M2395 4004 c-358 -53 -649 -197 -901 -449 -228 -227 -365 -481 -436
-808 -18 -85 -22 -134 -22 -297 -1 -214 11 -297 65 -467 31 -97 50 -126 74
-117 21 8 19 29 -10 115 -52 151 -68 260 -69 454 -1 278 37 445 159 690 201
406 581 700 1028 797 146 31 398 31 545 0 539 -117 936 -513 1056 -1053 46
-205 44 -408 -4 -630 -123 -566 -560 -1013 -1120 -1146 -145 -34 -361 -42
-518 -19 -281 42 -525 163 -739 369 -103 99 -133 114 -133 66 0 -28 151 -176
255 -251 219 -155 467 -242 735 -256 211 -12 361 8 557 73 566 188 990 724
1052 1330 14 127 1 370 -24 475 -115 483 -427 856 -862 1030 -169 67 -290 91
-488 95 -93 2 -183 1 -200 -1z"/>
<path d="M1815 3006 c-101 -32 -145 -76 -145 -145 0 -59 50 -111 142 -148 75
-30 128 -73 128 -104 0 -29 -36 -59 -70 -59 -37 0 -80 39 -80 71 0 19 -4 21
-36 16 -97 -16 -105 -115 -12 -157 84 -38 252 -16 303 40 17 19 18 19 37 -5
19 -25 50 -31 94 -19 21 5 22 10 17 84 -5 68 -3 84 19 131 28 61 69 109 93
109 18 0 19 -32 4 -130 -19 -127 16 -185 99 -164 28 7 37 14 35 29 -6 62 -5
91 2 197 8 132 4 164 -25 173 -33 10 -108 -31 -166 -91 l-54 -57 0 34 c0 45
-10 57 -51 69 -66 19 -66 20 -74 -90 l-7 -100 -36 29 c-20 15 -69 45 -108 64
-65 33 -114 75 -114 99 0 5 12 20 26 35 34 34 88 27 125 -17 28 -33 54 -38 87
-14 44 31 20 100 -44 124 -35 14 -141 11 -189 -4z"/>
<path d="M3094 3001 c-17 -10 -40 -31 -51 -46 l-20 -28 -6 31 c-5 25 -13 33
-44 41 -81 23 -78 27 -75 -116 2 -71 -2 -155 -7 -188 -8 -47 -9 -27 -4 91 5
150 5 152 -18 168 -13 9 -42 16 -64 16 -40 0 -41 -1 -37 -30 3 -18 0 -30 -7
-30 -6 0 -11 4 -11 8 0 4 -14 16 -31 26 -55 32 -140 7 -197 -59 -82 -93 -73
-265 18 -318 65 -39 133 -9 179 80 29 56 30 57 31 25 0 -18 7 -47 16 -63 14
-29 19 -31 65 -27 l49 3 0 -43 c0 -24 7 -56 15 -72 14 -26 21 -30 59 -30 67 0
76 6 65 43 -10 36 -12 140 -3 174 6 20 7 20 34 -10 23 -26 34 -31 68 -30 96 4
167 83 179 198 15 143 -100 249 -203 186z m62 -72 c15 -16 19 -36 19 -88 -1
-92 -39 -161 -90 -161 -37 0 -55 35 -55 108 0 72 18 122 51 146 31 22 52 20
75 -5z m-421 -43 c24 -17 22 -63 -5 -137 -27 -70 -59 -104 -93 -95 -72 18 -59
199 17 232 40 17 58 17 81 0z"/>
<path d="M2711 2404 c-41 -52 -15 -104 52 -104 41 0 67 27 67 72 0 57 -82 79
-119 32z"/>
<path d="M2881 2314 c4 -32 6 -61 3 -63 -15 -16 -79 -29 -101 -20 -13 5 -38 9
-54 9 -26 0 -29 -3 -29 -32 l0 -31 -25 23 c-38 36 -91 31 -128 -10 -27 -30
-29 -31 -47 -15 -10 9 -37 19 -59 22 -41 6 -41 6 -41 48 0 28 -6 47 -18 58
-18 16 -83 47 -100 47 -5 0 -12 -55 -15 -122 -7 -134 -32 -249 -70 -324 l-24
-48 -12 50 c-6 27 -18 110 -26 184 -9 74 -18 145 -21 157 -10 37 -51 63 -99
63 l-42 0 -7 -122 c-9 -150 -27 -242 -62 -316 l-27 -57 -13 55 c-7 30 -19 117
-28 193 -16 138 -31 189 -61 201 -23 9 -105 8 -105 -1 0 -5 7 -30 15 -57 8
-28 29 -123 45 -213 17 -90 38 -179 47 -197 18 -38 49 -56 96 -56 65 0 99 46
138 189 l23 84 16 -85 c9 -47 24 -97 33 -111 39 -60 154 -56 201 6 34 44 71
145 96 259 15 71 19 80 15 38 -17 -176 -18 -259 -2 -283 19 -29 52 -39 92 -28
l30 7 -4 100 c-3 111 10 178 39 194 27 14 29 14 61 -21 l29 -31 28 29 27 30
-9 -89 c-16 -151 14 -202 103 -178 39 10 40 11 29 41 -7 19 -8 74 -3 154 7
121 7 123 32 130 14 3 28 4 31 1 3 -3 0 -37 -7 -75 -15 -95 -14 -156 4 -191
16 -32 61 -60 94 -60 33 0 101 31 111 51 16 29 12 35 -24 31 -61 -7 -78 52
-58 203 7 47 9 50 47 61 33 9 41 16 43 39 4 27 3 28 -36 23 l-40 -6 -6 42
c-10 61 -18 69 -79 74 l-54 4 8 -58z"/>
<path d="M3287 2306 c-92 -34 -147 -116 -147 -218 0 -73 21 -117 72 -149 27
-16 46 -19 109 -17 65 3 81 7 113 31 38 29 75 91 63 104 -4 3 -17 -3 -30 -15
-34 -32 -107 -49 -146 -32 -18 7 -36 21 -42 31 -8 16 -6 19 14 19 47 0 120 33
163 75 55 52 60 97 15 147 -24 28 -35 32 -87 35 -35 2 -75 -3 -97 -11z m104
-77 c18 -35 -4 -67 -67 -96 -30 -14 -58 -23 -61 -19 -9 9 6 70 27 104 16 26
26 32 55 32 25 0 37 -6 46 -21z"/>
</g>
</svg>
